<svg width="38" height="38" viewBox="0 0 38 38" fill="none" xmlns="http://www.w3.org/2000/svg">
    <rect opacity="0.1" x="0.5" y="0.5" width="37" height="37" rx="5.5" stroke="black"/>
    <g clip-path="url(#clip0_1894_157)">
        <path opacity="0.3" d="M12.6669 26.3889C12.6669 27.55 13.6169 28.5 14.778 28.5H23.2224C24.3836 28.5 25.3336 27.55 25.3336 26.3889V13.7222H12.6669V26.3889ZM15.2636 18.8733L16.7519 17.385L19.0002 19.6228L21.238 17.385L22.7263 18.8733L20.4886 21.1111L22.7263 23.3489L21.238 24.8372L19.0002 22.5994L16.7624 24.8372L15.2741 23.3489L17.5119 21.1111L15.2636 18.8733ZM22.6947 10.5556L21.6391 9.5H16.3613L15.3058 10.5556H11.6113V12.6667H26.3891V10.5556H22.6947Z" fill="black"/>
    </g>
    <defs>
        <clipPath id="clip0_1894_157">
            <rect width="25.3333" height="25.3333" fill="white" transform="translate(6.3335 6.33334)"/>
        </clipPath>
    </defs>
</svg>
